<svg width="33" height="32" viewBox="0 0 33 32" fill="none" xmlns="http://www.w3.org/2000/svg">
<g id="lucide/shopping-cart">
<path id="Vector" d="M3.2334 2.73328H5.90007L9.44673 19.2933C9.57684 19.8998 9.91429 20.4419 10.401 20.8264C10.8877 21.2109 11.4933 21.4137 12.1134 21.3999H25.1534C25.7603 21.399 26.3487 21.191 26.8214 20.8104C27.2942 20.4298 27.6229 19.8993 27.7534 19.3066L29.9534 9.39994H7.32673M12.5001 27.9999C12.5001 28.7363 11.9031 29.3333 11.1667 29.3333C10.4304 29.3333 9.8334 28.7363 9.8334 27.9999C9.8334 27.2636 10.4304 26.6666 11.1667 26.6666C11.9031 26.6666 12.5001 27.2636 12.5001 27.9999ZM27.1667 27.9999C27.1667 28.7363 26.5698 29.3333 25.8334 29.3333C25.097 29.3333 24.5001 28.7363 24.5001 27.9999C24.5001 27.2636 25.097 26.6666 25.8334 26.6666C26.5698 26.6666 27.1667 27.2636 27.1667 27.9999Z" stroke="#7F7F7F" stroke-width="2" stroke-linecap="round" stroke-linejoin="round"/>
</g>
</svg>
